<svg width="28" height="28" viewBox="0 0 28 28" fill="none" xmlns="http://www.w3.org/2000/svg">
<g clip-path="url(#clip0)">
<path d="M10.5035 9.625C10.5035 10.3212 10.2269 10.9889 9.73465 11.4812C9.24237 11.9734 8.57469 12.25 7.8785 12.25C7.1823 12.25 6.51463 11.9734 6.02234 11.4812C5.53006 10.9889 5.2535 10.3212 5.2535 9.625C5.2535 8.92881 5.53006 8.26113 6.02234 7.76884C6.51463 7.27656 7.1823 7 7.8785 7C8.57469 7 9.24237 7.27656 9.73465 7.76884C10.2269 8.26113 10.5035 8.92881 10.5035 9.625Z" fill="black" fill-opacity="0.29"/>
<path d="M3.5035 1.75C2.57524 1.75 1.685 2.11875 1.02862 2.77513C0.372247 3.4315 0.00349808 4.32174 0.00349808 5.25V22.75C0.00349808 23.6783 0.372247 24.5685 1.02862 25.2249C1.685 25.8813 2.57524 26.25 3.5035 26.25H24.5035C25.4318 26.25 26.322 25.8813 26.9784 25.2249C27.6348 24.5685 28.0035 23.6783 28.0035 22.75V5.25C28.0035 4.32174 27.6348 3.4315 26.9784 2.77513C26.322 2.11875 25.4318 1.75 24.5035 1.75H3.5035ZM24.5035 3.5C24.9676 3.5 25.4127 3.68437 25.7409 4.01256C26.0691 4.34075 26.2535 4.78587 26.2535 5.25V16.625L19.6437 13.2177C19.4796 13.1355 19.2938 13.107 19.1126 13.1362C18.9314 13.1654 18.764 13.2509 18.634 13.3805L12.1415 19.873L7.4865 16.772C7.31843 16.6601 7.11683 16.6098 6.91589 16.6296C6.71495 16.6493 6.52703 16.738 6.384 16.8805L1.7535 21V5.25C1.7535 4.78587 1.93787 4.34075 2.26606 4.01256C2.59425 3.68437 3.03937 3.5 3.5035 3.5H24.5035Z" fill="black" fill-opacity="0.29"/>
</g>
<defs>
<clipPath id="clip0">
<rect width="28" height="28" fill="white"/>
</clipPath>
</defs>
</svg>
