<svg width="23" height="27" viewBox="0 0 23 27" fill="none" xmlns="http://www.w3.org/2000/svg">
<path d="M16.1 16.0312C14.6266 16.0312 13.9181 16.875 11.5 16.875C9.08192 16.875 8.37857 16.0312 6.9 16.0312C3.09063 16.0312 0 19.2059 0 23.1187V24.4688C0 25.8662 1.10379 27 2.46429 27H20.5357C21.8962 27 23 25.8662 23 24.4688V23.1187C23 19.2059 19.9094 16.0312 16.1 16.0312ZM20.5357 24.4688H2.46429V23.1187C2.46429 20.6086 4.45625 18.5625 6.9 18.5625C7.64955 18.5625 8.86629 19.4062 11.5 19.4062C14.1542 19.4062 15.3453 18.5625 16.1 18.5625C18.5438 18.5625 20.5357 20.6086 20.5357 23.1187V24.4688ZM11.5 15.1875C15.5815 15.1875 18.8929 11.7861 18.8929 7.59375C18.8929 3.40137 15.5815 0 11.5 0C7.41853 0 4.10714 3.40137 4.10714 7.59375C4.10714 11.7861 7.41853 15.1875 11.5 15.1875ZM11.5 2.53125C14.2158 2.53125 16.4286 4.8041 16.4286 7.59375C16.4286 10.3834 14.2158 12.6562 11.5 12.6562C8.78415 12.6562 6.57143 10.3834 6.57143 7.59375C6.57143 4.8041 8.78415 2.53125 11.5 2.53125Z" fill="black" fill-opacity="0.3"/>
</svg>
