<svg width="34" height="34" viewBox="0 0 34 34" fill="none" xmlns="http://www.w3.org/2000/svg">
<path d="M14.9494 3.78992C15.5237 3.30731 16.2498 3.04272 17 3.04272C17.7502 3.04272 18.4763 3.30731 19.0506 3.78992L28.6131 11.8309C28.9691 12.13 29.2553 12.5034 29.4517 12.9248C29.6481 13.3462 29.7499 13.8055 29.75 14.2704V27.626C29.75 28.1896 29.5261 28.7301 29.1276 29.1286C28.7291 29.5272 28.1886 29.751 27.625 29.751H21.7812C21.2177 29.751 20.6772 29.5272 20.2786 29.1286C19.8801 28.7301 19.6562 28.1896 19.6562 27.626V20.1885H14.3438V27.626C14.3438 28.1896 14.1199 28.7301 13.7214 29.1286C13.3228 29.5272 12.7823 29.751 12.2188 29.751H6.375C5.81141 29.751 5.27091 29.5272 4.8724 29.1286C4.47388 28.7301 4.25 28.1896 4.25 27.626V14.2694C4.25012 13.8044 4.35194 13.3451 4.54833 12.9237C4.74473 12.5023 5.03093 12.129 5.38688 11.8299L14.9494 3.78886V3.78992Z" fill="#89BF43"/>
</svg>
