<svg width="40" height="40" viewBox="0 0 40 40" fill="none" xmlns="http://www.w3.org/2000/svg">
<path d="M7.19034 6C6.87464 6 6.57187 6.12292 6.34864 6.34171C6.12541 6.5605 6 6.85725 6 7.16667C6 7.47609 6.12541 7.77283 6.34864 7.99162C6.57187 8.21042 6.87464 8.33333 7.19034 8.33333H7.77598C8.03446 8.33377 8.28576 8.41666 8.49192 8.56946C8.69808 8.72227 8.84789 8.93669 8.91871 9.18033L12.6945 22.1303C12.908 22.8611 13.3585 23.5039 13.9779 23.9615C14.5972 24.4191 15.3518 24.6667 16.1274 24.6667H27.0047C27.7185 24.6668 28.416 24.4572 29.0072 24.065C29.5983 23.6728 30.0559 23.1159 30.321 22.4663L33.8301 13.8657C33.9744 13.5118 34.028 13.1286 33.9863 12.7497C33.9446 12.3708 33.8088 12.0077 33.5908 11.6921C33.3729 11.3765 33.0794 11.118 32.7359 10.9392C32.3925 10.7605 32.0097 10.6669 31.6208 10.6667H11.8279L11.2065 8.53867C10.9935 7.8078 10.5436 7.16477 9.92464 6.70676C9.30572 6.24875 8.5515 6.00066 7.77598 6H7.19034ZM14.9847 21.4863L12.5088 13H31.6184L28.1093 21.6007C28.0209 21.8169 27.8684 22.0023 27.6716 22.1329C27.4747 22.2635 27.2424 22.3333 27.0047 22.3333H16.1274C15.8689 22.3329 15.6176 22.25 15.4115 22.0972C15.2053 21.9444 15.0555 21.73 14.9847 21.4863Z" fill="black" fill-opacity="0.3"/>
<path d="M16.713 34C17.182 34 17.6464 33.9095 18.0796 33.7336C18.5129 33.5577 18.9065 33.2999 19.2381 32.9749C19.5697 32.6499 19.8328 32.264 20.0122 31.8394C20.1917 31.4148 20.2841 30.9596 20.2841 30.5C20.2841 30.0404 20.1917 29.5852 20.0122 29.1606C19.8328 28.736 19.5697 28.3501 19.2381 28.0251C18.9065 27.7001 18.5129 27.4423 18.0796 27.2664C17.6464 27.0905 17.182 27 16.713 27C15.766 27 14.8576 27.3687 14.188 28.0251C13.5183 28.6815 13.142 29.5717 13.142 30.5C13.142 31.4283 13.5183 32.3185 14.188 32.9749C14.8576 33.6313 15.766 34 16.713 34ZM16.713 31.6667C16.3973 31.6667 16.0946 31.5438 15.8713 31.325C15.6481 31.1062 15.5227 30.8094 15.5227 30.5C15.5227 30.1906 15.6481 29.8938 15.8713 29.675C16.0946 29.4562 16.3973 29.3333 16.713 29.3333C17.0287 29.3333 17.3315 29.4562 17.5547 29.675C17.778 29.8938 17.9034 30.1906 17.9034 30.5C17.9034 30.8094 17.778 31.1062 17.5547 31.325C17.3315 31.5438 17.0287 31.6667 16.713 31.6667Z" fill="black" fill-opacity="0.3"/>
<path d="M26.2357 34C26.7047 34 27.1691 33.9095 27.6023 33.7336C28.0356 33.5577 28.4292 33.2999 28.7608 32.9749C29.0924 32.6499 29.3555 32.264 29.5349 31.8394C29.7144 31.4148 29.8068 30.9596 29.8068 30.5C29.8068 30.0404 29.7144 29.5852 29.5349 29.1606C29.3555 28.736 29.0924 28.3501 28.7608 28.0251C28.4292 27.7001 28.0356 27.4423 27.6023 27.2664C27.1691 27.0905 26.7047 27 26.2357 27C25.2886 27 24.3803 27.3687 23.7107 28.0251C23.041 28.6815 22.6647 29.5717 22.6647 30.5C22.6647 31.4283 23.041 32.3185 23.7107 32.9749C24.3803 33.6313 25.2886 34 26.2357 34ZM26.2357 31.6667C25.92 31.6667 25.6173 31.5438 25.394 31.325C25.1708 31.1062 25.0454 30.8094 25.0454 30.5C25.0454 30.1906 25.1708 29.8938 25.394 29.675C25.6173 29.4562 25.92 29.3333 26.2357 29.3333C26.5514 29.3333 26.8542 29.4562 27.0774 29.675C27.3007 29.8938 27.4261 30.1906 27.4261 30.5C27.4261 30.8094 27.3007 31.1062 27.0774 31.325C26.8542 31.5438 26.5514 31.6667 26.2357 31.6667Z" fill="black" fill-opacity="0.3"/>
</svg>
