<svg width="34" height="34" viewBox="0 0 24 24" fill="none" xmlns="http://www.w3.org/2000/svg">
<path d="M7.835 8L0 15.0833L6.0775 16.9677L1.515 23.9602L10.33 15.6037L5.5855 13.4878L7.835 8Z" fill="#FBB11C"/>
<path d="M19.35 6.03C19.0121 4.32956 18.0947 2.79901 16.7543 1.69938C15.414 0.599754 13.7337 -0.00084956 12 9.01958e-07C9.11 9.01958e-07 6.6 1.64 5.35 4.03C3.87938 4.19115 2.52004 4.88959 1.53271 5.99134C0.545374 7.09309 -0.000424928 8.52058 2.48222e-07 10C2.48222e-07 11.5913 0.632141 13.1174 1.75736 14.2426C2.88258 15.3679 4.4087 16 6 16H19C19.6566 16 20.3068 15.8707 20.9134 15.6194C21.52 15.3681 22.0712 14.9998 22.5355 14.5355C22.9998 14.0712 23.3681 13.52 23.6194 12.9134C23.8707 12.3068 24 11.6566 24 11C24 8.36 21.95 6.22 19.35 6.03Z" fill="black" fill-opacity="0.29"/>
<circle cx="9.75883" cy="17.5341" r="0.5" transform="rotate(15 9.75883 17.5341)" fill="#C4C4C4"/>
<circle cx="9.24119" cy="19.4659" r="0.5" transform="rotate(15 9.24119 19.4659)" fill="#C4C4C4"/>
<circle cx="10.5" cy="18.5" r="0.5" fill="#C4C4C4"/>
<circle cx="11.7588" cy="17.6124" r="0.5" transform="rotate(15 11.7588 17.6124)" fill="#C4C4C4"/>
<circle cx="11.2412" cy="19.5442" r="0.5" transform="rotate(15 11.2412 19.5442)" fill="#C4C4C4"/>
<circle cx="12.5" cy="18.5" r="0.5" fill="#C4C4C4"/>
<circle cx="13.7588" cy="17.6124" r="0.5" transform="rotate(15 13.7588 17.6124)" fill="#C4C4C4"/>
<circle cx="13.2412" cy="19.5442" r="0.5" transform="rotate(15 13.2412 19.5442)" fill="#C4C4C4"/>
<circle cx="4.13004" cy="17.5341" r="0.5" transform="rotate(15 4.13004 17.5341)" fill="#C4C4C4"/>
<circle cx="3.61234" cy="19.4659" r="0.5" transform="rotate(15 3.61234 19.4659)" fill="#C4C4C4"/>
<circle cx="4.87122" cy="18.5" r="0.5" fill="#C4C4C4"/>
<circle cx="6.13004" cy="17.6124" r="0.5" transform="rotate(15 6.13004 17.6124)" fill="#C4C4C4"/>
<circle cx="5.61246" cy="19.5442" r="0.5" transform="rotate(15 5.61246 19.5442)" fill="#C4C4C4"/>
<circle cx="6.87122" cy="18.5" r="0.5" fill="#C4C4C4"/>
<circle cx="8.13004" cy="17.6124" r="0.5" transform="rotate(15 8.13004 17.6124)" fill="#C4C4C4"/>
<circle cx="7.61246" cy="19.5442" r="0.5" transform="rotate(15 7.61246 19.5442)" fill="#C4C4C4"/>
<circle cx="16.13" cy="17.6124" r="0.5" transform="rotate(15 16.13 17.6124)" fill="#C4C4C4"/>
<circle cx="15.6123" cy="19.5442" r="0.5" transform="rotate(15 15.6123 19.5442)" fill="#C4C4C4"/>
<circle cx="16.8712" cy="18.5783" r="0.5" fill="#C4C4C4"/>
<circle cx="18.13" cy="17.6907" r="0.5" transform="rotate(15 18.13 17.6907)" fill="#C4C4C4"/>
<circle cx="17.6125" cy="19.6225" r="0.5" transform="rotate(15 17.6125 19.6225)" fill="#C4C4C4"/>
<circle cx="18.8712" cy="18.5783" r="0.5" fill="#C4C4C4"/>
<circle cx="20.13" cy="17.6907" r="0.5" transform="rotate(15 20.13 17.6907)" fill="#C4C4C4"/>
<circle cx="19.6125" cy="19.6225" r="0.5" transform="rotate(15 19.6125 19.6225)" fill="#C4C4C4"/>
</svg>
