<svg width="34" height="34" viewBox="0 0 20 16" fill="none" xmlns="http://www.w3.org/2000/svg">
<path d="M11.0015 3.009C14.17 3.009 15.9675 5.106 16.229 7.639H16.309C18.348 7.639 20.001 9.288 20.001 11.3215C20.001 13.3555 18.348 15.004 16.309 15.004H5.694C3.655 15.004 2.002 13.3555 2.002 11.3215C2.002 9.288 3.655 7.639 5.6945 7.639H5.7745C6.0375 5.0895 7.833 3.009 11.0015 3.009V3.009ZM8 2.71063e-07C8.76896 -0.000260431 9.52632 0.187536 10.2061 0.547024C10.8858 0.906512 11.4674 1.42678 11.9 2.0625C11.6014 2.02648 11.3008 2.00861 11 2.009C7.961 2.009 5.762 3.728 5.02 6.316L4.98 6.461L4.9225 6.6985L4.7155 6.737C3.92842 6.90342 3.1974 7.26956 2.59275 7.80022C1.98811 8.33087 1.53017 9.00818 1.263 9.767C0.724149 9.34654 0.330009 8.76834 0.135586 8.1131C-0.0588364 7.45785 -0.0438418 6.75826 0.178478 6.11195C0.400797 5.46563 0.819349 4.90485 1.37572 4.50787C1.93209 4.11088 2.59852 3.8975 3.282 3.8975H3.353C3.54626 2.80542 4.1179 1.81627 4.96765 1.10358C5.81739 0.390893 6.89095 0.000184429 8 2.71063e-07V2.71063e-07Z" fill="black" fill-opacity="0.29"/>
</svg>
