<svg width="34" height="34" viewBox="0 0 29 29" fill="none" xmlns="http://www.w3.org/2000/svg">
<g clip-path="url(#clip0)">
<circle cx="7.85417" cy="6.64583" r="6.64583" fill="#FFB629"/>
<path d="M23.3813 12.1196C22.9729 10.0649 21.8644 8.21548 20.2448 6.88676C18.6252 5.55805 16.5949 4.83232 14.5 4.83334C11.0079 4.83334 7.975 6.81501 6.46458 9.70293C4.68759 9.89765 3.04505 10.7416 1.85202 12.0729C0.658994 13.4042 -0.000513455 15.129 2.99935e-07 16.9167C2.99935e-07 18.8395 0.763837 20.6836 2.12348 22.0432C3.48311 23.4028 5.32718 24.1667 7.25 24.1667H22.9583C23.7517 24.1667 24.5374 24.0104 25.2704 23.7068C26.0034 23.4032 26.6694 22.9581 27.2304 22.3971C27.7915 21.8361 28.2365 21.1701 28.5401 20.4371C28.8437 19.704 29 18.9184 29 18.125C29 14.935 26.5229 12.3492 23.3813 12.1196Z" fill="white"/>
</g>
<defs>
<clipPath id="clip0">
<rect width="29" height="29" fill="white"/>
</clipPath>
</defs>
</svg>
