<?xml version="1.0" encoding="iso-8859-1"?>
<!-- Generator: Adobe Illustrator 19.0.0, SVG Export Plug-In . SVG Version: 6.00 Build 0)  -->
<svg version="1.1" id="Layer_1" xmlns="http://www.w3.org/2000/svg" xmlns:xlink="http://www.w3.org/1999/xlink" x="0px" y="0px"
	 viewBox="0 0 512 512" style="enable-background:new 0 0 512 512;" xml:space="preserve">
<path style="fill:#E6AF78;" d="M308.965,370.485v-35.037H203.034v35.036c0,10.829-6.593,20.567-16.648,24.588l-27.49,10.997v52.966
	h194.207v-52.966l-27.49-10.996C315.558,391.051,308.965,381.313,308.965,370.485z"/>
<path style="fill:#D29B6E;" d="M186.388,395.073l-10.399,4.16c97.666,15.663,132.977-46.13,132.977-46.13v-17.655H203.034v35.036
	C203.034,381.313,196.442,391.051,186.388,395.073z"/>
<path style="fill:#A06E5F;" d="M423.724,185.379h-17.655c0,92.483-67.319,167.724-150.069,167.724s-150.069-75.241-150.069-167.724
	H88.276c0,98.926,70.527,179.763,158.897,184.885v35.805c0,4.875,3.953,8.828,8.828,8.828c4.875,0,8.828-3.953,8.828-8.828v-35.805
	C353.197,365.142,423.724,284.307,423.724,185.379z"/>
<path style="fill:#A7A5AC;" d="M400.482,415.273l-67.334-24.486c-3.74-1.359-7.919-0.085-10.202,3.175
	c-7.615,10.877-26.763,35.258-54.604,50.422c-7.644,4.163-17.039,4.163-24.683,0c-27.841-15.165-46.989-39.546-54.604-50.422
	c-2.283-3.26-6.463-4.534-10.202-3.175l-67.334,24.486c-13.954,5.074-23.243,18.336-23.243,33.184v45.888
	c0,9.751,7.904,17.655,17.655,17.655h300.138c9.751,0,17.655-7.904,17.655-17.655v-45.888
	C423.724,433.609,414.435,420.346,400.482,415.273z"/>
<path style="fill:#504B5A;" d="M385.765,196.237c0,64.501-77.209,142.742-129.766,142.742s-129.766-78.241-129.766-142.742
	S198.666,79.448,256,79.448S385.765,131.736,385.765,196.237z"/>
<path style="fill:#F0C087;" d="M355.125,234.505c-44.204-4.025-80.567-27.736-93.781-59.435c-1.954-4.687-8.733-4.687-10.687,0
	c-13.214,31.698-49.577,55.41-93.781,59.435c-13.338,0.663-15.135,10.879-12.867,19.946l8.467,33.869
	c1.003,4.012,4.608,6.827,8.745,6.827c1.11,0,2.173-0.215,3.16-0.586l0,0l1.905,13.331c2.007,14.051,10.781,26.225,23.476,32.572
	l46.894,23.447c12.178,6.089,26.511,6.089,38.689,0l46.894-23.447c12.695-6.348,21.469-18.52,23.476-32.572l1.905-13.331
	c0.988,0.371,2.051,0.586,3.16,0.586c4.136,0,7.742-2.815,8.745-6.827l8.467-33.869
	C370.259,245.384,368.463,235.167,355.125,234.505z"/>
<path style="fill:#E6AF78;" d="M215.69,318.548c-2.536-6.865-6.76-32.25-9.769-57.795c-0.686-5.825,1.543-11.609,6.07-15.339
	c8.681-7.149,17.838-15.574,26.061-24.789c4.989-5.59,12.13-8.762,19.623-8.762h34.124c-13.887-9.954-24.52-22.556-30.455-36.792
	c-1.954-4.689-8.734-4.689-10.688,0c-13.214,31.698-49.577,55.409-93.781,59.435c-13.338,0.663-15.135,10.879-12.868,19.946
	l8.467,33.869c1.003,4.012,4.609,6.828,8.745,6.828c1.11,0,2.173-0.215,3.16-0.586l1.905,13.33
	c2.008,14.051,10.782,26.225,23.477,32.573l46.894,23.447c4.578,2.289,9.461,3.715,14.42,4.284l0,0
	C241.082,361.341,226.211,347.032,215.69,318.548z"/>
<path style="fill:#FFCF65;" d="M483.933,186.255L265.366,3.495C262.58,1.165,259.293,0,256.005,0v194.207h225.644
	C485.38,194.207,486.942,188.771,483.933,186.255z"/>
<path style="fill:#FFB450;" d="M28.068,186.255L246.635,3.495C249.42,1.165,252.708,0,255.995,0v194.207H30.351
	C26.619,194.207,25.058,188.771,28.068,186.255z"/>
<path style="fill:#FFCF65;" d="M265.366,3.495c-5.571-4.659-13.15-4.659-18.722,0l-1.878,1.571L129.371,194.207h253.266
	L267.244,5.065L265.366,3.495z"/>
<path style="fill:#FFDC78;" d="M267.244,5.065l-1.878-1.571C262.58,1.165,259.293,0,256.005,0v194.207h126.633L267.244,5.065z"/>
<g>
	<path style="fill:#8D8A94;" d="M140.652,468.755l-46.7-39.354c-3.583,5.571-5.676,12.12-5.676,19.057v45.888
		c0,9.751,7.904,17.655,17.655,17.655h44.138v-22.995C150.069,481.197,146.623,473.786,140.652,468.755z"/>
	<path style="fill:#8D8A94;" d="M371.349,468.755l46.7-39.354c3.583,5.571,5.676,12.12,5.676,19.057v45.888
		c0,9.751-7.904,17.655-17.655,17.655h-44.138v-22.995C361.931,481.197,365.377,473.786,371.349,468.755z"/>
	<path style="fill:#8D8A94;" d="M169.585,394.157c2.578,5.786,35.346,49.236,65.631,65.731c12.81,6.983,28.75,6.983,41.578,0
		c30.276-16.495,63.044-59.946,65.622-65.731l-9.267-3.37c-3.74-1.359-7.919-0.085-10.202,3.175
		c-7.615,10.876-26.763,35.258-54.604,50.422c-7.644,4.163-17.039,4.163-24.683,0c-27.84-15.165-46.989-39.546-54.604-50.422
		c-2.283-3.26-6.463-4.534-10.202-3.175L169.585,394.157z"/>
</g>
<g>
</g>
<g>
</g>
<g>
</g>
<g>
</g>
<g>
</g>
<g>
</g>
<g>
</g>
<g>
</g>
<g>
</g>
<g>
</g>
<g>
</g>
<g>
</g>
<g>
</g>
<g>
</g>
<g>
</g>
</svg>
