<svg width="15" height="15" viewBox="0 0 15 15" fill="none" xmlns="http://www.w3.org/2000/svg">
<path d="M10.2825 3.21746L6.3075 7.1924L4.7175 5.60242C4.65026 5.52391 4.56753 5.46015 4.47448 5.41513C4.38143 5.37011 4.28008 5.34482 4.17679 5.34083C4.0735 5.33684 3.9705 5.35424 3.87426 5.39195C3.77801 5.42965 3.6906 5.48685 3.61751 5.55994C3.54442 5.63303 3.48723 5.72043 3.44952 5.81668C3.41182 5.91292 3.39441 6.01592 3.3984 6.1192C3.40239 6.22249 3.42769 6.32384 3.47271 6.41689C3.51772 6.50994 3.58149 6.59267 3.66 6.65991L5.7825 8.78238C5.9222 8.92093 6.11074 8.99905 6.3075 8.99988C6.4062 9.00045 6.50405 8.98153 6.59543 8.9442C6.68681 8.90688 6.76992 8.85189 6.84 8.78238L11.34 4.28244C11.4103 4.21272 11.4661 4.12977 11.5042 4.03838C11.5422 3.94698 11.5618 3.84896 11.5618 3.74995C11.5618 3.65094 11.5422 3.55291 11.5042 3.46152C11.4661 3.37013 11.4103 3.28718 11.34 3.21746C11.1995 3.07777 11.0094 2.99936 10.8113 2.99936C10.6131 2.99936 10.423 3.07777 10.2825 3.21746ZM12.75 0H2.25C1.65326 0 1.08097 0.23705 0.65901 0.659001C0.237053 1.08095 0 1.65324 0 2.24997V9.74986C0 10.3466 0.237053 10.9189 0.65901 11.3408C1.08097 11.7628 1.65326 11.9998 2.25 11.9998H10.9425L13.7175 14.7823C13.7876 14.8518 13.8707 14.9068 13.9621 14.9441C14.0534 14.9814 14.1513 15.0004 14.25 14.9998C14.3484 15.0023 14.446 14.9818 14.535 14.9398C14.672 14.8835 14.7892 14.788 14.872 14.6652C14.9547 14.5424 14.9993 14.3979 15 14.2498V2.24997C15 1.65324 14.7629 1.08095 14.341 0.659001C13.919 0.23705 13.3467 0 12.75 0ZM13.5 12.4423L11.7825 10.7174C11.7124 10.6478 11.6293 10.5928 11.5379 10.5555C11.4466 10.5182 11.3487 10.4993 11.25 10.4999H2.25C2.05109 10.4999 1.86032 10.4208 1.71967 10.2802C1.57902 10.1395 1.5 9.94877 1.5 9.74986V2.24997C1.5 2.05106 1.57902 1.8603 1.71967 1.71965C1.86032 1.579 2.05109 1.49998 2.25 1.49998H12.75C12.9489 1.49998 13.1397 1.579 13.2803 1.71965C13.421 1.8603 13.5 2.05106 13.5 2.24997V12.4423Z" fill="#89BF43"/>
</svg>
